<?xml version="1.0" encoding="iso-8859-1"?>
<!-- Generator: Adobe Illustrator 19.0.0, SVG Export Plug-In . SVG Version: 6.00 Build 0)  -->
<svg version="1.1" id="Layer_1" xmlns="http://www.w3.org/2000/svg" xmlns:xlink="http://www.w3.org/1999/xlink" x="0px" y="0px"
	 viewBox="0 0 512.002 512.002" style="enable-background:new 0 0 512.002 512.002;" xml:space="preserve">
<path style="fill:#507C5C;" d="M196.912,241.131c-7.288,0-13.396-5.69-13.821-13.059L170.759,14.658
	c-0.294-5.084,2.225-9.92,6.56-12.593c4.335-2.676,9.787-2.755,14.199-0.209l64.483,37.2l64.483-37.2
	c4.412-2.544,9.864-2.467,14.199,0.209c4.335,2.673,6.854,7.509,6.56,12.593l-3.571,61.793c-0.441,7.641-7.012,13.464-14.633,13.035
	c-7.641-0.442-13.476-6.992-13.035-14.633l2.09-36.162l-49.168,28.364c-4.286,2.472-9.563,2.472-13.849,0l-49.168-28.364
	l10.852,187.783c0.441,7.639-5.395,14.191-13.035,14.633C197.453,241.123,197.182,241.131,196.912,241.131z"/>
<polygon style="fill:#CFF09E;" points="256.002,380.172 314.347,306.81 398.977,306.81 256.002,498.144 113.024,306.81 
	197.654,306.81 "/>
<path style="fill:#507C5C;" d="M411.366,300.602c-2.35-4.688-7.145-7.649-12.388-7.649h-73.815l8.58-148.484
	c0.441-7.641-5.395-14.191-13.035-14.633c-7.644-0.434-14.193,5.395-14.633,13.035l-9.476,163.996l-40.596,51.044l-47.501-59.726
	c-2.629-3.305-6.622-5.231-10.846-5.231h-84.631c-5.245,0-10.04,2.961-12.388,7.649c-2.349,4.688-1.85,10.301,1.289,14.503
	L244.901,506.44c2.616,3.5,6.73,5.562,11.101,5.562s8.485-2.062,11.101-5.562l142.974-191.335
	C413.217,310.904,413.714,305.29,411.366,300.602z M256.002,474.994L140.679,320.666h50.292l54.186,68.13
	c2.629,3.305,6.622,5.231,10.846,5.231s8.216-1.926,10.846-5.231l54.186-68.13h50.292L256.002,474.994z"/>
<g>
</g>
<g>
</g>
<g>
</g>
<g>
</g>
<g>
</g>
<g>
</g>
<g>
</g>
<g>
</g>
<g>
</g>
<g>
</g>
<g>
</g>
<g>
</g>
<g>
</g>
<g>
</g>
<g>
</g>
</svg>
