<?xml version="1.0" encoding="iso-8859-1"?>
<!-- Generator: Adobe Illustrator 19.0.0, SVG Export Plug-In . SVG Version: 6.00 Build 0)  -->
<svg version="1.1" id="Layer_1" xmlns="http://www.w3.org/2000/svg" xmlns:xlink="http://www.w3.org/1999/xlink" x="0px" y="0px"
	 viewBox="0 0 512 512" style="enable-background:new 0 0 512 512;" xml:space="preserve">
<g transform="translate(0 1)">
	<polygon style="fill:#00DA6C;" points="34.133,493.933 477.867,493.933 477.867,16.067 34.133,16.067 	"/>
	<polygon style="fill:#00AD55;" points="477.867,493.933 503.467,493.933 503.467,16.067 477.867,16.067 	"/>
	<polygon style="fill:#FFFFFF;" points="8.533,493.933 34.133,493.933 34.133,16.067 8.533,16.067 	"/>
	<path id="SVGCleanerId_0" d="M512,502.467H0V127c0-5.12,3.413-8.533,8.533-8.533s8.533,3.413,8.533,8.533v358.4h477.867v-68.267
		c0-5.12,3.413-8.533,8.533-8.533c5.12,0,8.533,3.413,8.533,8.533V502.467z"/>
	<path id="SVGCleanerId_1" d="M503.467,348.867c-5.12,0-8.533-3.413-8.533-8.533V24.6H17.067v34.133c0,5.12-3.413,8.533-8.533,8.533
		S0,63.853,0,58.733v-51.2h512v332.8C512,345.453,508.587,348.867,503.467,348.867z"/>
	<path id="SVGCleanerId_2" d="M17.067,92.867c0-5.12-3.413-8.533-8.533-8.533S0,87.747,0,92.867s3.413,8.533,8.533,8.533
		S17.067,97.987,17.067,92.867"/>
	<path id="SVGCleanerId_3" d="M503.467,391.533c-5.12,0-8.533-3.413-8.533-8.533v-8.533c0-5.12,3.413-8.533,8.533-8.533
		c5.12,0,8.533,3.413,8.533,8.533V383C512,388.12,508.587,391.533,503.467,391.533z"/>
	<polygon style="fill:#FFE100;" points="85.333,417.133 426.667,417.133 426.667,331.8 85.333,331.8 	"/>
	<path id="SVGCleanerId_4" d="M435.2,425.667H76.8v-102.4h358.4V425.667z M93.867,408.6h324.267v-68.267H93.867V408.6z"/>
	<path id="SVGCleanerId_5" d="M256,267.8c-2.56,0-4.267-0.853-5.973-2.56c-3.413-3.413-3.413-8.533,0-11.947l68.267-68.267
		c3.413-3.413,8.533-3.413,11.947,0c3.413,3.413,3.413,8.533,0,11.947l-68.267,68.267C260.267,266.947,258.56,267.8,256,267.8z"/>
	<path id="SVGCleanerId_6" d="M256,267.8c-2.56,0-4.267-0.853-5.973-2.56l-68.267-68.267c-3.413-3.413-3.413-8.533,0-11.947
		s8.533-3.413,11.947,0l68.267,68.267c3.413,3.413,3.413,8.533,0,11.947C260.267,266.947,258.56,267.8,256,267.8z"/>
	<path id="SVGCleanerId_7" d="M256,267.8c-5.12,0-8.533-3.413-8.533-8.533V88.6c0-5.12,3.413-8.533,8.533-8.533
		c5.12,0,8.533,3.413,8.533,8.533v170.667C264.533,264.387,261.12,267.8,256,267.8z"/>
	<path id="SVGCleanerId_8" d="M426.667,391.533c-2.56,0-4.267-0.853-5.973-2.56l-51.2-51.2c-3.413-3.413-3.413-8.533,0-11.947
		c3.413-3.413,8.533-3.413,11.947,0l51.2,51.2c3.413,3.413,3.413,8.533,0,11.947C430.933,390.68,429.227,391.533,426.667,391.533z"
		/>
	<path id="SVGCleanerId_9" d="M401.067,425.667c-2.56,0-4.267-0.853-5.973-2.56l-85.333-85.333c-3.413-3.413-3.413-8.533,0-11.947
		c3.413-3.413,8.533-3.413,11.947,0l85.333,85.333c3.413,3.413,3.413,8.533,0,11.947
		C405.333,424.813,403.627,425.667,401.067,425.667z"/>
	<path id="SVGCleanerId_10" d="M341.333,425.667c-2.56,0-4.267-0.853-5.973-2.56l-85.333-85.333c-3.413-3.413-3.413-8.533,0-11.947
		c3.413-3.413,8.533-3.413,11.947,0l85.333,85.333c3.413,3.413,3.413,8.533,0,11.947C345.6,424.813,343.893,425.667,341.333,425.667
		z"/>
	<path id="SVGCleanerId_11" d="M281.6,425.667c-2.56,0-4.267-0.853-5.973-2.56l-85.333-85.333c-3.413-3.413-3.413-8.533,0-11.947
		c3.413-3.413,8.533-3.413,11.947,0l85.333,85.333c3.413,3.413,3.413,8.533,0,11.947C285.867,424.813,284.16,425.667,281.6,425.667z
		"/>
	<path id="SVGCleanerId_12" d="M221.867,425.667c-2.56,0-4.267-0.853-5.973-2.56l-85.333-85.333c-3.413-3.413-3.413-8.533,0-11.947
		c3.413-3.413,8.533-3.413,11.947,0l85.333,85.333c3.413,3.413,3.413,8.533,0,11.947
		C226.133,424.813,224.427,425.667,221.867,425.667z"/>
	<path id="SVGCleanerId_13" d="M162.133,425.667c-2.56,0-4.267-0.853-5.973-2.56l-76.8-76.8c-3.413-3.413-3.413-8.533,0-11.947
		c3.413-3.413,8.533-3.413,11.947,0l76.8,76.8c3.413,3.413,3.413,8.533,0,11.947C166.4,424.813,164.693,425.667,162.133,425.667z"/>
	<polygon style="fill:#00DA6C;" points="34.133,493.933 477.867,493.933 477.867,16.067 34.133,16.067 	"/>
	<polygon style="fill:#00AD55;" points="477.867,493.933 503.467,493.933 503.467,16.067 477.867,16.067 	"/>
	<polygon style="fill:#FFFFFF;" points="8.533,493.933 34.133,493.933 34.133,16.067 8.533,16.067 	"/>
	<g>
		<path id="SVGCleanerId_0_1_" d="M512,502.467H0V127c0-5.12,3.413-8.533,8.533-8.533s8.533,3.413,8.533,8.533v358.4h477.867
			v-68.267c0-5.12,3.413-8.533,8.533-8.533c5.12,0,8.533,3.413,8.533,8.533V502.467z"/>
	</g>
	<g>
		<path id="SVGCleanerId_1_1_" d="M503.467,348.867c-5.12,0-8.533-3.413-8.533-8.533V24.6H17.067v34.133
			c0,5.12-3.413,8.533-8.533,8.533S0,63.853,0,58.733v-51.2h512v332.8C512,345.453,508.587,348.867,503.467,348.867z"/>
	</g>
	<g>
		<path id="SVGCleanerId_2_1_" d="M17.067,92.867c0-5.12-3.413-8.533-8.533-8.533S0,87.747,0,92.867s3.413,8.533,8.533,8.533
			S17.067,97.987,17.067,92.867"/>
	</g>
	<g>
		<path id="SVGCleanerId_3_1_" d="M503.467,391.533c-5.12,0-8.533-3.413-8.533-8.533v-8.533c0-5.12,3.413-8.533,8.533-8.533
			c5.12,0,8.533,3.413,8.533,8.533V383C512,388.12,508.587,391.533,503.467,391.533z"/>
	</g>
	<polygon style="fill:#FFE100;" points="85.333,417.133 426.667,417.133 426.667,331.8 85.333,331.8 	"/>
	<g>
		<path id="SVGCleanerId_4_1_" d="M435.2,425.667H76.8v-102.4h358.4V425.667z M93.867,408.6h324.267v-68.267H93.867V408.6z"/>
	</g>
	<g>
		<path id="SVGCleanerId_5_1_" d="M256,267.8c-2.56,0-4.267-0.853-5.973-2.56c-3.413-3.413-3.413-8.533,0-11.947l68.267-68.267
			c3.413-3.413,8.533-3.413,11.947,0c3.413,3.413,3.413,8.533,0,11.947l-68.267,68.267C260.267,266.947,258.56,267.8,256,267.8z"/>
	</g>
	<g>
		<path id="SVGCleanerId_6_1_" d="M256,267.8c-2.56,0-4.267-0.853-5.973-2.56l-68.267-68.267c-3.413-3.413-3.413-8.533,0-11.947
			s8.533-3.413,11.947,0l68.267,68.267c3.413,3.413,3.413,8.533,0,11.947C260.267,266.947,258.56,267.8,256,267.8z"/>
	</g>
	<g>
		<path id="SVGCleanerId_7_1_" d="M256,267.8c-5.12,0-8.533-3.413-8.533-8.533V88.6c0-5.12,3.413-8.533,8.533-8.533
			c5.12,0,8.533,3.413,8.533,8.533v170.667C264.533,264.387,261.12,267.8,256,267.8z"/>
	</g>
	<g>
		<path id="SVGCleanerId_8_1_" d="M426.667,391.533c-2.56,0-4.267-0.853-5.973-2.56l-51.2-51.2c-3.413-3.413-3.413-8.533,0-11.947
			c3.413-3.413,8.533-3.413,11.947,0l51.2,51.2c3.413,3.413,3.413,8.533,0,11.947C430.933,390.68,429.227,391.533,426.667,391.533z"
			/>
	</g>
	<g>
		<path id="SVGCleanerId_9_1_" d="M401.067,425.667c-2.56,0-4.267-0.853-5.973-2.56l-85.333-85.333
			c-3.413-3.413-3.413-8.533,0-11.947c3.413-3.413,8.533-3.413,11.947,0l85.333,85.333c3.413,3.413,3.413,8.533,0,11.947
			C405.333,424.813,403.627,425.667,401.067,425.667z"/>
	</g>
	<g>
		<path id="SVGCleanerId_10_1_" d="M341.333,425.667c-2.56,0-4.267-0.853-5.973-2.56l-85.333-85.333
			c-3.413-3.413-3.413-8.533,0-11.947c3.413-3.413,8.533-3.413,11.947,0l85.333,85.333c3.413,3.413,3.413,8.533,0,11.947
			C345.6,424.813,343.893,425.667,341.333,425.667z"/>
	</g>
	<g>
		<path id="SVGCleanerId_11_1_" d="M281.6,425.667c-2.56,0-4.267-0.853-5.973-2.56l-85.333-85.333
			c-3.413-3.413-3.413-8.533,0-11.947c3.413-3.413,8.533-3.413,11.947,0l85.333,85.333c3.413,3.413,3.413,8.533,0,11.947
			C285.867,424.813,284.16,425.667,281.6,425.667z"/>
	</g>
	<g>
		<path id="SVGCleanerId_12_1_" d="M221.867,425.667c-2.56,0-4.267-0.853-5.973-2.56l-85.333-85.333
			c-3.413-3.413-3.413-8.533,0-11.947c3.413-3.413,8.533-3.413,11.947,0l85.333,85.333c3.413,3.413,3.413,8.533,0,11.947
			C226.133,424.813,224.427,425.667,221.867,425.667z"/>
	</g>
	<g>
		<path id="SVGCleanerId_13_1_" d="M162.133,425.667c-2.56,0-4.267-0.853-5.973-2.56l-76.8-76.8c-3.413-3.413-3.413-8.533,0-11.947
			c3.413-3.413,8.533-3.413,11.947,0l76.8,76.8c3.413,3.413,3.413,8.533,0,11.947C166.4,424.813,164.693,425.667,162.133,425.667z"
			/>
	</g>
</g>
<g>
</g>
<g>
</g>
<g>
</g>
<g>
</g>
<g>
</g>
<g>
</g>
<g>
</g>
<g>
</g>
<g>
</g>
<g>
</g>
<g>
</g>
<g>
</g>
<g>
</g>
<g>
</g>
<g>
</g>
</svg>
